<?xml version="1.0" standalone="no"?>
<!DOCTYPE svg PUBLIC "-//W3C//DTD SVG 1.1//EN" "http://www.w3.org/Graphics/SVG/1.1/DTD/svg11.dtd" >
<svg xmlns="http://www.w3.org/2000/svg" xmlns:svg="http://www.w3.org/2000/svg" xmlns:xlink="http://www.w3.org/1999/xlink" viewBox="0 0 1024 1024"><path d="M142.20372 310.40149Q133.77858 248.80733 103.74512 241.04294Q163.61689 281.5317 192.55164 190.4086Q206.35303 163.62488 212.88824 202.06399Q208.68334 124.66311 237.72837 115.21404Q241.44801 95.82262 266.58848 76.36673Q304.06885 115.56304 298.3487 108.03027Q298.4691 87.42276 310.35589 107.99475Q288.75574 108.64647 335.18153 75.1278Q327.44597 103.25995 301.93122 88.42995Q335.63446 93.68455 332.67738 149.18054Q307.38536 149.4561 357.26529 188.63931Q354.17997 209.40259 352.68521 176.5713Q318.89731 177.61507 340.35433 189.59705Q346.09092 166.94055 384.39704 176.74466Q388.61165 200.22744 411.22811 190.87069Q429.7174 192.62484 428.21212 204.66978Q459.45618 164.16832 490.20277 207.27361Q509.9607 178.2314 476.25163 219.90463Q467.38175 171.68771 485.07573 179.88953Q500.93535 205.20217 485.67292 195.48529Q468.58141 179.95367 525.01372 170.53033Q493.0908 121.50198 526.09501 122.18225Q508.4137 142.65741 533.06731 91.13082Q555.35978 115.2088 574.20704 203.80398L584.64185 171.57692H681.74456Q766.86319 191.2784 783.96144 228.58473Q827.08925 231.9032 795.47049 227.30737Q857.25713 185.22009 838.49734 196.78346Q828.88202 208.92978 841.22115 244.4713Q801.43002 224.19689 805.85488 243.04992Q834.36082 254.76803 802.46046 262.16792Q856.42232 261.40837 769.64365 219.62029Q808.39224 241.70645 691.54864 251.93357Q664.80793 243.03772 647.28393 254.74334Q588.0629 219.89921 614.55205 275.50632Q624.8234 251.31582 627.00838 263.8818Q600.2641 264.52915 613.60653 298.6353L554.64382 325.97962L700.82954 326.51172Q691.02883 281.23396 725.73657 315.3492Q722.22207 287.03446 723.99988 345.82451Q785.97674 321.36077 777.59244 292.0623Q757.90905 360.198 790.66119 327.42106Q794.99126 333.91471 725.07036 355.41688Q764.96307 358.43608 667.72053 335.02157H616.95771V442.58311H661.31489Q690.92465 423.69822 685.20968 434.74906Q709.83169 402.3647 762.71301 448.67385Q776.98577 418.73443 748.88664 428.49477Q728.22659 467.55315 768.68521 476.55278Q715.33487 422.29389 739.04108 494.24546Q739.05293 470.20334 637.97822 497.02261Q648.3476 479.23941 612.8153 464.2886Q625.30079 483.75087 601.18136 481.2731Q612.05542 487.12137 567.95411 441.33855Q598.2504 447.68197 594.74746 530.32708Q563.86143 534.76748 605.73793 542.83816Q628.92293 544.46814 667.42062 536.91089Q685.05415 526.84651 652.7394 519.22738Q674.08415 492.02031 714.27315 492.29147Q759.43816 480.46368 797.45717 482.54364Q816.3709 526.6111 845.65575 504.78769Q847.77235 520.61743 791.21619 502.57035Q774.04849 556.70801 810.8802 566.18034Q800.94964 531.20326 805.95682 562.96286Q785.49784 612.69337 657.52218 577.49062Q486.09674 581.13513 476.29744 604.69622Q284.16829 589.32653 283.13346 577.03758Q247.22066 533.14491 244.84034 518.55311Q233.05824 475.82399 261.67174 428.57446Q221.32158 362.81127 210.09113 292.89309Q188.65207 328.00894 242.67219 253.8847Q227.32216 328.5859 231.45541 288.95336Q244.52873 291.49406 229.19606 282.37443Q175.87958 286.07294 234.96229 308.06641Q154.66997 290.72622 115.81557 338.81873Q174.87747 306.4459 112.39458 345.07928Q108.36739 335.18063 133.06564 278.99644ZM179.87665 675.08186Q189.12189 653.95987 187.14965 603.99395Q152.47122 658.74192 205.82658 630.5666Q238.32883 634.38251 300.89335 643.77659Q331.8103 642.24353 333.4229 655.08351Q401.67292 599.35411 418.23427 633.64386Q436.68472 599.91911 468.46189 637.89782Q451.02893 634.59806 435.70076 653.61422Q475.16388 629.31318 482.66577 660.60644Q479.26664 682.90411 466.47641 724.28172L457.41467 736.28913H651.33844V657.97293Q599.72464 700.45466 600.09173 709.47345Q587.0201 614.23491 590.64882 621.86477Q639.496 630.42682 716.87539 633.69351Q666.62283 599.39632 689.90498 591.57294Q781.35069 641.20863 794.22425 629.83363H849.41864L937.20051 648.97117Q917.33191 610.75252 909.65088 633.9176Q942.34152 692.4582 909.29591 756.81692Q928.95763 811.43151 909.91784 912.13997Q865.14585 926.56869 874.88865 909.59445Q880.63535 969.96545 883.69626 955.86558Q901.97708 987.93149 840.86232 922.05595Q867.08198 911.55445 787.63354 909.94562Q743.90215 915.74618 730.42171 897.68888Q747.7023 889.94849 765.94293 874.35157Q757.05881 895.60432 796.53791 865.38203Q770.3784 839.21403 819.4285 814.95974Q833.8059 859.97054 798.96903 859.94773L830.98903 818.42594L820.90083 770.1833Q816.73449 726.15184 862.99179 720.17252Q862.58198 742.09471 796.20184 729.82155Q805.33407 709.00073 797.69355 648.53478Q754.76338 709.17343 787.46141 723.50106Q745.67551 725.53018 719.11729 691.42667Q700.09183 728.41892 687.37037 664.17763Q709.00245 722.60377 697.68588 727.0093Q664.7062 711.21339 683.24237 762.76374Q706.51469 788.36316 664.91287 782.33155Q649.51706 749.95899 674.51777 800.75774Q673.75148 773.50613 679.17207 825.57184Q646.81962 796.71856 500.76624 835.18542Q511.04331 847.48947 429.39166 847.58293Q405.12867 827.07932 375.52536 787.81633Q396.69205 771.66669 384.23453 809.07053Q403.53268 761.86689 359.66755 816.1769Q384.49796 771.59156 394.31966 741.02836V676.63321H271.14688V770.09326Q260.71841 894.30852 206.37599 887.46224Q220.94314 915.53353 225.72534 934.68372Q216.96289 933.20424 236.24591 978.3048Q195.25119 987.14424 247.38236 931.74696Q166.86367 915.86247 147.54208 912.31806Q216.97898 950.28054 154.2095 882.92064Q158.48747 899.142 203.30196 811.3126Q180.93425 710.38467 201.8482 720.37655Q150.11781 640.14872 203.57311 631.87091ZM361.00571 321.22569Q337.75433 264.93991 305.64294 326.59688Q370.20614 283.6863 375.13741 314.80737L459.99835 273.62367V229.35284H418.79392Q416.90057 224.60637 378.36249 225.25941Q319.02682 253.39675 363.10825 224.37902Q340.88896 299.11932 357.08014 246.24418Q299.97041 270.05013 342.73559 274.50936ZM409.18075 482.37732L452.24117 529.52152L506.37671 463.62805L457.81738 491.53704H342.43907V502.90923ZM343.63464 379.78994Q343.11175 423.17899 312.28785 358.22905Q345.59601 373.11697 348.02529 370.71186Q409.66636 438.28795 408.65891 403.38895Q441.27597 429.03059 456.33376 433.49952Q459.09011 392.18178 511.51231 412.04852Q500.07843 375.53329 461.33395 392.31037Q463.22484 386.80312 488.5593 413.92229Q446.70377 393.91457 480.47951 357.8636Q463.77008 340.79265 406.98612 398.00709Q384.02897 379.06263 392.39897 340.53406Q397.50135 343.60649 316.08971 341.55907Q351.84875 399.57953 310.76128 351.81408Q354.59874 357.23615 341.22978 393.75591Z" fill="black"></path></svg>