<?xml version="1.0" standalone="no"?>
<!DOCTYPE svg PUBLIC "-//W3C//DTD SVG 1.1//EN" "http://www.w3.org/Graphics/SVG/1.1/DTD/svg11.dtd" >
<svg xmlns="http://www.w3.org/2000/svg" xmlns:svg="http://www.w3.org/2000/svg" xmlns:xlink="http://www.w3.org/1999/xlink" viewBox="0 0 1024 1024"><path d="M110.5 284.5Q110.5 274.5 119.5 261.0Q128.5 247.5 153.5 223.5Q173.5 203.5 195.0 179.5Q216.5 155.5 229.5 135.5Q241.5 117.5 256.0 102.0Q270.5 86.5 277.5 81.5Q293.5 73.5 307.5 73.5Q308.5 73.5 316.5 74.0Q324.5 74.5 333.5 86.5Q342.5 101.5 342.5 117.5Q342.5 133.5 330.5 157.5Q324.5 169.5 322.0 177.5Q319.5 185.5 319.5 187.5Q322.5 189.5 345.0 190.5Q367.5 191.5 402.5 193.5Q431.5 194.5 448.5 194.5Q457.5 194.5 469.5 194.0Q481.5 193.5 481.5 187.5Q483.5 184.5 485.0 177.0Q486.5 169.5 488.5 160.5Q493.5 144.5 505.5 132.0Q517.5 119.5 529.5 117.5Q544.5 117.5 555.0 130.0Q565.5 142.5 571.5 166.5L578.5 193.5H697.5Q733.5 192.5 757.5 192.5Q788.5 192.5 806.0 194.5Q823.5 196.5 826.5 203.5Q835.5 215.5 835.5 222.5Q835.5 223.5 835.0 227.0Q834.5 230.5 823.5 241.5Q817.5 248.5 796.0 251.5Q774.5 254.5 704.5 254.5Q657.5 254.5 627.0 255.5Q596.5 256.5 594.5 257.5Q592.5 261.5 591.0 268.0Q589.5 274.5 589.5 283.5L585.5 302.5L668.5 306.5Q717.5 308.5 737.0 311.0Q756.5 313.5 762.5 320.5Q769.5 326.5 769.5 332.0Q769.5 337.5 762.5 347.5Q756.5 358.5 741.5 361.5Q726.5 364.5 666.5 364.5H583.5V403.5H659.5Q706.5 403.5 724.5 405.5Q742.5 407.5 747.5 412.5Q756.5 423.5 756.5 431.5Q756.5 439.5 747.5 450.5Q742.5 455.5 725.5 458.5Q708.5 461.5 659.5 461.5Q644.5 460.5 631.5 460.5Q598.5 460.5 591.0 464.5Q583.5 468.5 583.5 476.5Q583.5 482.5 587.5 491.5Q587.5 502.5 600.5 505.0Q613.5 507.5 642.5 507.5Q662.5 507.5 690.5 506.5Q711.5 505.5 727.5 505.5Q773.5 505.5 792.0 510.5Q810.5 515.5 810.5 532.5Q810.5 533.5 810.5 535.5Q810.5 542.5 808.0 548.0Q805.5 553.5 801.5 556.5Q751.5 574.5 625.5 575.5Q499.5 576.5 476.5 576.5Q292.5 576.5 254.5 562.5Q252.5 556.5 248.0 527.0Q243.5 497.5 240.5 455.5Q232.5 351.5 228.0 322.0Q223.5 292.5 220.5 292.5Q220.5 292.5 220.5 292.5Q218.5 292.5 211.5 297.5Q204.5 302.5 195.5 308.5Q172.5 324.5 151.5 324.5Q145.5 324.5 129.0 320.0Q112.5 315.5 110.5 284.5ZM172.5 665.5Q173.5 634.5 178.5 630.5Q182.5 623.5 210.5 621.5Q238.5 619.5 308.5 617.5Q340.5 617.5 363.5 617.5Q398.5 617.5 416.5 618.5Q434.5 619.5 439.5 630.5Q450.5 637.5 452.0 645.5Q453.5 653.5 453.5 659.5Q453.5 671.5 450.5 691.5L445.5 740.5H616.5V695.5Q616.5 686.5 616.5 679.5Q616.5 641.5 625.5 628.0Q634.5 614.5 677.5 610.5Q691.5 608.5 725.0 608.0Q758.5 607.5 796.5 607.5H882.5L898.5 625.5Q909.5 635.5 911.5 653.0Q913.5 670.5 913.5 729.5Q911.5 835.5 907.0 887.0Q902.5 938.5 891.5 945.5Q882.5 950.5 868.5 950.5Q863.5 950.5 849.5 949.0Q835.5 947.5 807.5 932.5Q780.5 918.5 769.5 907.5Q758.5 896.5 758.5 882.5Q758.5 860.5 769.0 852.5Q779.5 844.5 797.5 844.5Q801.5 844.5 805.5 844.5L832.5 846.5L837.5 781.5Q840.5 751.5 840.5 732.5Q840.5 705.5 834.0 696.5Q827.5 687.5 792.5 687.5Q782.5 687.5 769.5 688.5Q758.5 688.5 748.5 688.5Q711.5 688.5 702.0 694.5Q692.5 700.5 692.5 727.5Q692.5 735.5 693.5 743.5Q693.5 761.5 690.0 773.5Q686.5 785.5 681.5 792.5Q675.5 803.5 652.0 806.0Q628.5 808.5 533.5 810.5Q486.5 811.5 456.5 811.5Q426.5 811.5 409.0 810.0Q391.5 808.5 385.5 797.5Q378.5 790.5 375.0 777.0Q371.5 763.5 371.5 734.5V684.5H245.5V808.5Q245.5 873.5 243.5 905.0Q241.5 936.5 238.5 940.5Q231.5 947.5 220.5 947.5Q217.5 947.5 209.0 946.5Q200.5 945.5 187.5 934.5Q180.5 929.5 178.0 901.5Q175.5 873.5 173.5 781.5Q172.5 725.5 172.5 692.5Q172.5 676.5 172.5 665.5ZM331.5 288.5Q331.5 297.5 343.5 300.0Q355.5 302.5 407.5 304.5L479.5 306.5V254.5H407.5Q394.5 254.5 384.5 254.5Q350.5 254.5 340.5 259.0Q330.5 263.5 330.5 277.5Q330.5 282.5 331.5 288.5ZM412.5 504.5 483.5 502.5 484.5 484.5 486.5 468.5H342.5V508.5ZM339.5 383.5Q339.5 389.5 340.5 392.5Q342.5 400.5 357.0 401.0Q371.5 401.5 412.5 401.5Q463.5 400.5 473.0 398.0Q482.5 395.5 482.5 387.5Q482.5 385.5 481.5 383.5Q482.5 380.5 482.5 378.5Q482.5 370.5 473.0 368.0Q463.5 365.5 412.5 365.5Q396.5 365.5 383.5 365.5Q365.5 365.5 354.0 366.5Q342.5 367.5 340.5 373.5Q339.5 378.5 339.5 383.5Z" fill="black"></path></svg>